<svg width="75" height="75" viewBox="0 0 75 75" fill="none" xmlns="http://www.w3.org/2000/svg">
<circle cx="37.5" cy="37.5" r="37.5" fill="#FAB51E"/>
<path d="M58.1869 39.9489C57.6964 39.5709 57.134 39.2967 56.5342 39.1429C55.9343 38.9891 55.3094 38.9591 54.6975 39.0545C58.2188 35.4995 60 31.9652 60 28.5002C60 23.5371 56.0081 19.5002 51.1012 19.5002C49.7993 19.492 48.5113 19.7689 47.3277 20.3115C46.1441 20.854 45.0936 21.6491 44.25 22.6408C43.4064 21.6491 42.3559 20.854 41.1723 20.3115C39.9887 19.7689 38.7007 19.492 37.3988 19.5002C32.4919 19.5002 28.5 23.5371 28.5 28.5002C28.5 30.5627 29.1075 32.567 30.3862 34.6877C29.3389 34.953 28.3832 35.4973 27.6206 36.2627L23.3794 40.5002H18C17.2044 40.5002 16.4413 40.8162 15.8787 41.3789C15.3161 41.9415 15 42.7045 15 43.5002V51.0002C15 51.7958 15.3161 52.5589 15.8787 53.1215C16.4413 53.6841 17.2044 54.0002 18 54.0002H37.5C37.6226 54.0002 37.7448 53.9851 37.8638 53.9552L49.8638 50.9552C49.9402 50.937 50.0149 50.9119 50.0869 50.8802L57.375 47.7789L57.4575 47.7414C58.1579 47.3914 58.7578 46.8689 59.2004 46.223C59.6431 45.5771 59.914 44.8291 59.9878 44.0496C60.0615 43.2701 59.9355 42.4846 59.6218 41.7672C59.308 41.0498 58.8168 40.424 58.1944 39.9489H58.1869ZM37.3988 22.5002C38.5605 22.4832 39.701 22.8131 40.6743 23.4477C41.6475 24.0823 42.4094 24.9928 42.8625 26.0627C42.9755 26.3378 43.1678 26.5731 43.4148 26.7387C43.6619 26.9043 43.9526 26.9927 44.25 26.9927C44.5474 26.9927 44.8381 26.9043 45.0852 26.7387C45.3322 26.5731 45.5245 26.3378 45.6375 26.0627C46.0906 24.9928 46.8525 24.0823 47.8257 23.4477C48.799 22.8131 49.9395 22.4832 51.1012 22.5002C54.2981 22.5002 57 25.2471 57 28.5002C57 32.1583 54.0394 36.2964 48.4388 40.4814L46.3594 40.9595C46.5419 40.1885 46.5475 39.3862 46.3759 38.6127C46.2042 37.8392 45.8597 37.1146 45.3681 36.4932C44.8766 35.8717 44.2508 35.3696 43.5376 35.0245C42.8244 34.6793 42.0423 34.5001 41.25 34.5002H33.8775C32.2594 32.3177 31.5 30.3977 31.5 28.5002C31.5 25.2471 34.2019 22.5002 37.3988 22.5002ZM18 43.5002H22.5V51.0002H18V43.5002ZM56.1431 45.0395L49.0181 48.0733L37.3125 51.0002H25.5V42.6208L29.7431 38.3795C30.0207 38.0998 30.3511 37.8779 30.7152 37.727C31.0792 37.576 31.4696 37.4989 31.8638 37.5002H41.25C41.8467 37.5002 42.419 37.7372 42.841 38.1592C43.2629 38.5811 43.5 39.1534 43.5 39.7502C43.5 40.3469 43.2629 40.9192 42.841 41.3412C42.419 41.7631 41.8467 42.0002 41.25 42.0002H36C35.6022 42.0002 35.2206 42.1582 34.9393 42.4395C34.658 42.7208 34.5 43.1023 34.5 43.5002C34.5 43.898 34.658 44.2795 34.9393 44.5608C35.2206 44.8421 35.6022 45.0002 36 45.0002H42C42.1129 44.9999 42.2254 44.9873 42.3356 44.9627L54.8981 42.0733L54.9563 42.0583C55.3397 41.9518 55.7491 41.991 56.1054 42.1681C56.4618 42.3453 56.7401 42.648 56.8867 43.018C57.0333 43.3881 57.0379 43.7992 56.8996 44.1724C56.7613 44.5456 56.4898 44.8545 56.1375 45.0395H56.1431Z" fill="white"/>
</svg>
