<svg width="75" height="75" viewBox="0 0 75 75" fill="none" xmlns="http://www.w3.org/2000/svg">
<circle cx="37.5" cy="37.5" r="37.5" fill="#FAB51E"/>
<path d="M59.5611 22.9396L50.5611 13.9396C50.4217 13.8002 50.2563 13.6897 50.0742 13.6142C49.8921 13.5388 49.697 13.5 49.4999 13.5C49.3028 13.5 49.1076 13.5388 48.9255 13.6142C48.7434 13.6897 48.578 13.8002 48.4386 13.9396C48.2992 14.0789 48.1887 14.2444 48.1133 14.4265C48.0378 14.6086 47.999 14.8037 47.999 15.0008C47.999 15.1979 48.0378 15.3931 48.1133 15.5752C48.1887 15.7573 48.2992 15.9227 48.4386 16.0621L51.8792 19.5008L46.4999 24.8802L40.0611 18.4396C39.7796 18.1581 39.3979 18 38.9999 18C38.6018 18 38.2201 18.1581 37.9386 18.4396C37.6571 18.721 37.499 19.1028 37.499 19.5008C37.499 19.8989 37.6571 20.2806 37.9386 20.5621L39.1292 21.7508L23.3792 37.5008C23.0994 37.7784 22.8776 38.1088 22.7267 38.4729C22.5757 38.8369 22.4986 39.2273 22.4999 39.6215V48.8802L18.4386 52.9396C18.2992 53.0789 18.1887 53.2444 18.1133 53.4265C18.0378 53.6086 17.999 53.8037 17.999 54.0008C17.999 54.1979 18.0378 54.3931 18.1133 54.5752C18.1887 54.7573 18.2992 54.9227 18.4386 55.0621C18.7201 55.3435 19.1018 55.5017 19.4999 55.5017C19.697 55.5017 19.8921 55.4628 20.0742 55.3874C20.2563 55.312 20.4217 55.2015 20.5611 55.0621L24.6205 51.0008H33.8792C34.2733 51.0021 34.6638 50.925 35.0278 50.774C35.3919 50.6231 35.7223 50.4012 35.9999 50.1215L51.7499 34.3715L52.9386 35.5621C53.078 35.7014 53.2434 35.812 53.4255 35.8874C53.6076 35.9628 53.8028 36.0017 53.9999 36.0017C54.197 36.0017 54.3921 35.9628 54.5742 35.8874C54.7563 35.812 54.9217 35.7014 55.0611 35.5621C55.2005 35.4227 55.311 35.2573 55.3864 35.0752C55.4619 34.8931 55.5007 34.6979 55.5007 34.5008C55.5007 34.3037 55.4619 34.1086 55.3864 33.9265C55.311 33.7444 55.2005 33.5789 55.0611 33.4396L48.6205 27.0008L53.9999 21.6215L57.4386 25.0621C57.7201 25.3435 58.1018 25.5017 58.4999 25.5017C58.8979 25.5017 59.2797 25.3435 59.5611 25.0621C59.8426 24.7806 60.0007 24.3989 60.0007 24.0008C60.0007 23.6028 59.8426 23.221 59.5611 22.9396ZM33.8792 48.0008H25.4999V39.6215L28.8749 36.2465L32.6886 40.0621C32.828 40.2015 32.9934 40.312 33.1755 40.3874C33.3576 40.4628 33.5528 40.5017 33.7499 40.5017C33.9469 40.5017 34.1421 40.4628 34.3242 40.3874C34.5063 40.312 34.6717 40.2015 34.8111 40.0621C34.9505 39.9227 35.061 39.7573 35.1364 39.5752C35.2119 39.3931 35.2507 39.1979 35.2507 39.0008C35.2507 38.8037 35.2119 38.6086 35.1364 38.4265C35.061 38.2444 34.9505 38.079 34.8111 37.9396L30.9955 34.1258L33.3749 31.7465L37.1886 35.5621C37.4701 35.8435 37.8518 36.0017 38.2499 36.0017C38.6479 36.0017 39.0296 35.8435 39.3111 35.5621C39.5926 35.2806 39.7507 34.8989 39.7507 34.5008C39.7507 34.1028 39.5926 33.721 39.3111 33.4396L35.4955 29.6258L41.2499 23.8715L49.6292 32.2508L33.8792 48.0008Z" fill="white"/>
</svg>
