<svg width="75" height="75" viewBox="0 0 75 75" fill="none" xmlns="http://www.w3.org/2000/svg">
<circle cx="37.5" cy="37.5" r="37.5" fill="#FAB51E"/>
<path d="M52.5 21H48V19.5C48 19.1022 47.842 18.7206 47.5607 18.4393C47.2794 18.158 46.8978 18 46.5 18C46.1022 18 45.7206 18.158 45.4393 18.4393C45.158 18.7206 45 19.1022 45 19.5V21H30V19.5C30 19.1022 29.842 18.7206 29.5607 18.4393C29.2794 18.158 28.8978 18 28.5 18C28.1022 18 27.7206 18.158 27.4393 18.4393C27.158 18.7206 27 19.1022 27 19.5V21H22.5C21.7044 21 20.9413 21.3161 20.3787 21.8787C19.8161 22.4413 19.5 23.2044 19.5 24V54C19.5 54.7957 19.8161 55.5587 20.3787 56.1213C20.9413 56.6839 21.7044 57 22.5 57H52.5C53.2957 57 54.0587 56.6839 54.6213 56.1213C55.1839 55.5587 55.5 54.7957 55.5 54V24C55.5 23.2044 55.1839 22.4413 54.6213 21.8787C54.0587 21.3161 53.2957 21 52.5 21ZM27 24V25.5C27 25.8978 27.158 26.2794 27.4393 26.5607C27.7206 26.842 28.1022 27 28.5 27C28.8978 27 29.2794 26.842 29.5607 26.5607C29.842 26.2794 30 25.8978 30 25.5V24H45V25.5C45 25.8978 45.158 26.2794 45.4393 26.5607C45.7206 26.842 46.1022 27 46.5 27C46.8978 27 47.2794 26.842 47.5607 26.5607C47.842 26.2794 48 25.8978 48 25.5V24H52.5V30H22.5V24H27ZM52.5 54H22.5V33H52.5V54ZM43.5 43.5C43.5 43.8978 43.342 44.2794 43.0607 44.5607C42.7794 44.842 42.3978 45 42 45H39V48C39 48.3978 38.842 48.7794 38.5607 49.0607C38.2794 49.342 37.8978 49.5 37.5 49.5C37.1022 49.5 36.7206 49.342 36.4393 49.0607C36.158 48.7794 36 48.3978 36 48V45H33C32.6022 45 32.2206 44.842 31.9393 44.5607C31.658 44.2794 31.5 43.8978 31.5 43.5C31.5 43.1022 31.658 42.7206 31.9393 42.4393C32.2206 42.158 32.6022 42 33 42H36V39C36 38.6022 36.158 38.2206 36.4393 37.9393C36.7206 37.658 37.1022 37.5 37.5 37.5C37.8978 37.5 38.2794 37.658 38.5607 37.9393C38.842 38.2206 39 38.6022 39 39V42H42C42.3978 42 42.7794 42.158 43.0607 42.4393C43.342 42.7206 43.5 43.1022 43.5 43.5Z" fill="white"/>
</svg>
