<svg width="75" height="75" viewBox="0 0 75 75" fill="none" xmlns="http://www.w3.org/2000/svg">
<circle cx="37.5" cy="37.5" r="37.5" fill="#FAB51E"/>
<path d="M53.25 28.5C52.2117 28.5 51.1966 28.8079 50.3333 29.3848C49.4699 29.9617 48.797 30.7816 48.3996 31.7409C48.0023 32.7002 47.8983 33.7558 48.1009 34.7742C48.3035 35.7926 48.8035 36.7281 49.5377 37.4623C50.2719 38.1965 51.2074 38.6966 52.2258 38.8991C53.2442 39.1017 54.2998 38.9977 55.2591 38.6004C56.2184 38.203 57.0383 37.5301 57.6152 36.6667C58.1921 35.8034 58.5 34.7884 58.5 33.75C58.5 32.3576 57.9469 31.0223 56.9623 30.0377C55.9777 29.0531 54.6424 28.5 53.25 28.5ZM53.25 36C52.805 36 52.37 35.868 52 35.6208C51.63 35.3736 51.3416 35.0222 51.1713 34.611C51.001 34.1999 50.9564 33.7475 51.0432 33.311C51.1301 32.8746 51.3443 32.4737 51.659 32.159C51.9737 31.8443 52.3746 31.6301 52.8111 31.5432C53.2475 31.4564 53.6999 31.501 54.111 31.6713C54.5222 31.8416 54.8736 32.13 55.1208 32.5C55.368 32.87 55.5 33.305 55.5 33.75C55.5 34.3467 55.2629 34.919 54.841 35.341C54.419 35.7629 53.8467 36 53.25 36ZM27 33.75C27 32.7116 26.6921 31.6966 26.1152 30.8333C25.5383 29.9699 24.7184 29.297 23.7591 28.8996C22.7998 28.5023 21.7442 28.3983 20.7258 28.6009C19.7074 28.8035 18.7719 29.3035 18.0377 30.0377C17.3035 30.7719 16.8035 31.7074 16.6009 32.7258C16.3983 33.7442 16.5023 34.7998 16.8996 35.7591C17.297 36.7184 17.9699 37.5383 18.8333 38.1152C19.6966 38.6921 20.7117 39 21.75 39C23.1424 39 24.4777 38.4469 25.4623 37.4623C26.4469 36.4777 27 35.1424 27 33.75ZM21.75 36C21.305 36 20.87 35.868 20.5 35.6208C20.13 35.3736 19.8416 35.0222 19.6713 34.611C19.501 34.1999 19.4564 33.7475 19.5432 33.311C19.6301 32.8746 19.8443 32.4737 20.159 32.159C20.4737 31.8443 20.8746 31.6301 21.311 31.5432C21.7475 31.4564 22.1999 31.501 22.611 31.6713C23.0222 31.8416 23.3736 32.13 23.6208 32.5C23.868 32.87 24 33.305 24 33.75C24 34.3467 23.7629 34.919 23.341 35.341C22.919 35.7629 22.3467 36 21.75 36ZM30.75 30C31.7884 30 32.8034 29.6921 33.6667 29.1152C34.5301 28.5383 35.203 27.7184 35.6004 26.7591C35.9977 25.7998 36.1017 24.7442 35.8991 23.7258C35.6966 22.7074 35.1965 21.7719 34.4623 21.0377C33.7281 20.3035 32.7926 19.8035 31.7742 19.6009C30.7558 19.3983 29.7002 19.5023 28.7409 19.8996C27.7816 20.297 26.9617 20.9699 26.3848 21.8333C25.8079 22.6966 25.5 23.7117 25.5 24.75C25.5 26.1424 26.0531 27.4777 27.0377 28.4623C28.0223 29.4469 29.3576 30 30.75 30ZM30.75 22.5C31.195 22.5 31.63 22.632 32 22.8792C32.37 23.1264 32.6584 23.4778 32.8287 23.889C32.999 24.3001 33.0436 24.7525 32.9568 25.189C32.87 25.6254 32.6557 26.0263 32.341 26.341C32.0263 26.6557 31.6254 26.87 31.189 26.9568C30.7525 27.0436 30.3001 26.999 29.889 26.8287C29.4778 26.6584 29.1264 26.37 28.8792 26C28.632 25.63 28.5 25.195 28.5 24.75C28.5 24.1533 28.7371 23.581 29.159 23.159C29.581 22.7371 30.1533 22.5 30.75 22.5ZM44.25 30C45.2884 30 46.3034 29.6921 47.1667 29.1152C48.0301 28.5383 48.703 27.7184 49.1004 26.7591C49.4977 25.7998 49.6017 24.7442 49.3991 23.7258C49.1966 22.7074 48.6965 21.7719 47.9623 21.0377C47.2281 20.3035 46.2926 19.8035 45.2742 19.6009C44.2558 19.3983 43.2002 19.5023 42.2409 19.8996C41.2816 20.297 40.4617 20.9699 39.8848 21.8333C39.3079 22.6966 39 23.7117 39 24.75C39 26.1424 39.5531 27.4777 40.5377 28.4623C41.5223 29.4469 42.8576 30 44.25 30ZM44.25 22.5C44.695 22.5 45.13 22.632 45.5 22.8792C45.87 23.1264 46.1584 23.4778 46.3287 23.889C46.499 24.3001 46.5436 24.7525 46.4568 25.189C46.37 25.6254 46.1557 26.0263 45.841 26.341C45.5263 26.6557 45.1254 26.87 44.689 26.9568C44.2525 27.0436 43.8001 26.999 43.389 26.8287C42.9778 26.6584 42.6264 26.37 42.3792 26C42.132 25.63 42 25.195 42 24.75C42 24.1533 42.2371 23.581 42.659 23.159C43.081 22.7371 43.6533 22.5 44.25 22.5ZM48.585 41.4113C47.8231 40.9909 47.1515 40.4245 46.6088 39.7443C46.066 39.0642 45.6627 38.2837 45.4219 37.4475C44.9231 35.7323 43.8812 34.2254 42.4527 33.1531C41.0242 32.0808 39.2862 31.5011 37.5 31.5011C35.7138 31.5011 33.9758 32.0808 32.5473 33.1531C31.1188 34.2254 30.0769 35.7323 29.5781 37.4475C29.0964 39.1301 27.9669 40.5528 26.4375 41.4038C24.9704 42.1976 23.8097 43.458 23.1392 44.9855C22.4687 46.5129 22.3266 48.2204 22.7354 49.8377C23.1441 51.455 24.0804 52.8899 25.3961 53.9154C26.7118 54.9409 28.3318 55.4985 30 55.5C30.9997 55.5029 31.9896 55.3032 32.91 54.9131C35.8445 53.7029 39.1386 53.7029 42.0731 54.9131C43.8505 55.6862 45.8582 55.7411 47.6752 55.0663C49.4922 54.3916 50.9775 53.0396 51.8195 51.2939C52.6616 49.5481 52.7952 47.5442 52.1922 45.7021C51.5891 43.8601 50.2964 42.323 48.585 41.4131V41.4113ZM45 52.5C44.391 52.5005 43.7882 52.3774 43.2281 52.1381C39.5543 50.6206 35.4288 50.6206 31.755 52.1381C30.6874 52.5978 29.4833 52.6265 28.3949 52.2183C27.3066 51.8101 26.4185 50.9965 25.9165 49.9481C25.4146 48.8996 25.3379 47.6977 25.7024 46.5939C26.0668 45.4901 26.8443 44.5702 27.8719 44.0269C28.9767 43.4167 29.9504 42.5948 30.7374 41.608C31.5243 40.6213 32.109 39.4891 32.4581 38.2763C32.7751 37.1842 33.4381 36.2247 34.3473 35.5418C35.2566 34.859 36.3629 34.4898 37.5 34.4898C38.6371 34.4898 39.7435 34.859 40.6527 35.5418C41.5619 36.2247 42.2249 37.1842 42.5419 38.2763C42.8921 39.4914 43.4786 40.6255 44.2679 41.6136C45.0571 42.6016 46.0336 43.4243 47.1413 44.0344C48.0259 44.5089 48.7266 45.2656 49.1317 46.1841C49.5368 47.1026 49.6231 48.1302 49.377 49.1035C49.1308 50.0767 48.5663 50.9397 47.7732 51.5552C46.98 52.1706 46.0039 52.5032 45 52.5Z" fill="white"/>
</svg>
