<svg width="75" height="75" viewBox="0 0 75 75" fill="none" xmlns="http://www.w3.org/2000/svg">
<circle cx="37.5" cy="37.5" r="37.5" fill="#FAB51E"/>
<path d="M59.9999 36.75C59.998 34.7631 59.4334 32.8174 58.3716 31.1381C57.3097 29.4587 55.794 28.1144 53.9999 27.2606V27C53.9982 25.0673 53.3744 23.1865 52.2207 21.6358C51.067 20.0852 49.4448 18.9471 47.5942 18.3901C45.7435 17.833 43.7626 17.8864 41.9447 18.5425C40.1267 19.1986 38.5683 20.4225 37.4999 22.0331C36.4316 20.4225 34.8732 19.1986 33.0552 18.5425C31.2373 17.8864 29.2564 17.833 27.4057 18.3901C25.555 18.9471 23.9328 20.0852 22.7792 21.6358C21.6255 23.1865 21.0017 25.0673 20.9999 27V27.2606C19.2043 28.112 17.6872 29.4555 16.6248 31.135C15.5625 32.8144 14.9985 34.7609 14.9985 36.7481C14.9985 38.7354 15.5625 40.6818 16.6248 42.3613C17.6872 44.0407 19.2043 45.3842 20.9999 46.2356V46.5C21.0017 48.4327 21.6255 50.3135 22.7792 51.8642C23.9328 53.4148 25.555 54.5529 27.4057 55.11C29.2564 55.667 31.2373 55.6136 33.0552 54.9575C34.8732 54.3014 36.4316 53.0775 37.4999 51.4669C38.5683 53.0775 40.1267 54.3014 41.9447 54.9575C43.7626 55.6136 45.7435 55.667 47.5942 55.11C49.4448 54.5529 51.067 53.4148 52.2207 51.8642C53.3744 50.3135 53.9982 48.4327 53.9999 46.5V46.2356C55.7938 45.3825 57.3093 44.0388 58.3711 42.3601C59.433 40.6814 59.9977 38.7363 59.9999 36.75ZM29.9999 52.5C28.5205 52.4998 27.0932 51.953 25.9924 50.9646C24.8915 49.9762 24.1946 48.6159 24.0356 47.145C24.5206 47.2142 25.01 47.2493 25.4999 47.25H26.9999C27.3978 47.25 27.7793 47.092 28.0606 46.8107C28.3419 46.5294 28.4999 46.1478 28.4999 45.75C28.4999 45.3522 28.3419 44.9706 28.0606 44.6893C27.7793 44.408 27.3978 44.25 26.9999 44.25H25.4999C23.7291 44.2521 22.0147 43.6275 20.6602 42.4868C19.3056 41.3462 18.3984 39.763 18.0991 38.0177C17.7998 36.2723 18.1277 34.4774 19.0248 32.9506C19.9219 31.4238 21.3302 30.2637 23.0006 29.6756C23.2928 29.5722 23.5458 29.3807 23.7248 29.1275C23.9038 28.8743 23.9999 28.5719 23.9999 28.2619V27C23.9999 25.4087 24.6321 23.8826 25.7573 22.7574C26.8825 21.6321 28.4086 21 29.9999 21C31.5912 21 33.1174 21.6321 34.2426 22.7574C35.3678 23.8826 35.9999 25.4087 35.9999 27V39.7987C34.3528 38.3173 32.2153 37.4984 29.9999 37.5C29.6021 37.5 29.2206 37.658 28.9393 37.9393C28.658 38.2206 28.4999 38.6022 28.4999 39C28.4999 39.3978 28.658 39.7794 28.9393 40.0607C29.2206 40.342 29.6021 40.5 29.9999 40.5C31.5912 40.5 33.1174 41.1321 34.2426 42.2574C35.3678 43.3826 35.9999 44.9087 35.9999 46.5C35.9999 48.0913 35.3678 49.6174 34.2426 50.7426C33.1174 51.8679 31.5912 52.5 29.9999 52.5ZM49.4999 44.25H47.9999C47.6021 44.25 47.2206 44.408 46.9393 44.6893C46.658 44.9706 46.4999 45.3522 46.4999 45.75C46.4999 46.1478 46.658 46.5294 46.9393 46.8107C47.2206 47.092 47.6021 47.25 47.9999 47.25H49.4999C49.9899 47.2493 50.4792 47.2142 50.9643 47.145C50.8397 48.2975 50.3839 49.3892 49.652 50.2882C48.9201 51.1871 47.9435 51.8548 46.8402 52.2105C45.7369 52.5662 44.5542 52.5947 43.435 52.2926C42.3159 51.9904 41.3083 51.3705 40.5339 50.5078C39.7596 49.6451 39.2518 48.5766 39.0718 47.4314C38.8919 46.2863 39.0475 45.1135 39.5199 44.0549C39.9923 42.9963 40.7612 42.0972 41.7338 41.4663C42.7063 40.8355 43.8407 40.4998 44.9999 40.5C45.3978 40.5 45.7793 40.342 46.0606 40.0607C46.3419 39.7794 46.4999 39.3978 46.4999 39C46.4999 38.6022 46.3419 38.2206 46.0606 37.9393C45.7793 37.658 45.3978 37.5 44.9999 37.5C42.7846 37.4984 40.6471 38.3173 38.9999 39.7987V27C38.9999 25.4087 39.6321 23.8826 40.7573 22.7574C41.8825 21.6321 43.4086 21 44.9999 21C46.5912 21 48.1174 21.6321 49.2426 22.7574C50.3678 23.8826 50.9999 25.4087 50.9999 27V28.2619C51 28.5719 51.0961 28.8743 51.2751 29.1275C51.454 29.3807 51.7071 29.5722 51.9993 29.6756C53.6697 30.2637 55.078 31.4238 55.9751 32.9506C56.8722 34.4774 57.2001 36.2723 56.9008 38.0177C56.6015 39.763 55.6943 41.3462 54.3397 42.4868C52.9852 43.6275 51.2708 44.2521 49.4999 44.25ZM52.4999 34.5C52.4999 34.8978 52.3419 35.2794 52.0606 35.5607C51.7793 35.842 51.3978 36 50.9999 36H50.2499C48.4597 36 46.7428 35.2888 45.477 34.023C44.2111 32.7571 43.4999 31.0402 43.4999 29.25V28.5C43.4999 28.1022 43.658 27.7206 43.9393 27.4393C44.2206 27.158 44.6021 27 44.9999 27C45.3978 27 45.7793 27.158 46.0606 27.4393C46.3419 27.7206 46.4999 28.1022 46.4999 28.5V29.25C46.4999 30.2446 46.895 31.1984 47.5983 31.9017C48.3016 32.6049 49.2554 33 50.2499 33H50.9999C51.3978 33 51.7793 33.158 52.0606 33.4393C52.3419 33.7206 52.4999 34.1022 52.4999 34.5ZM24.7499 36H23.9999C23.6021 36 23.2206 35.842 22.9393 35.5607C22.658 35.2794 22.4999 34.8978 22.4999 34.5C22.4999 34.1022 22.658 33.7206 22.9393 33.4393C23.2206 33.158 23.6021 33 23.9999 33H24.7499C25.7445 33 26.6983 32.6049 27.4016 31.9017C28.1049 31.1984 28.4999 30.2446 28.4999 29.25V28.5C28.4999 28.1022 28.658 27.7206 28.9393 27.4393C29.2206 27.158 29.6021 27 29.9999 27C30.3978 27 30.7793 27.158 31.0606 27.4393C31.3419 27.7206 31.4999 28.1022 31.4999 28.5V29.25C31.4999 31.0402 30.7888 32.7571 29.5229 34.023C28.257 35.2888 26.5402 36 24.7499 36Z" fill="white"/>
</svg>
