<svg width="75" height="75" viewBox="0 0 75 75" fill="none" xmlns="http://www.w3.org/2000/svg">
<circle cx="37.5" cy="37.5" r="36" fill="#FAB51E" stroke="#FAB51E" stroke-width="3"/>
<path d="M26.2002 53.2H47.8002" stroke="white" stroke-width="3" stroke-linecap="round" stroke-linejoin="round"/>
<path d="M37.0002 38.8C39.6512 38.8 41.8002 36.6509 41.8002 34C41.8002 31.349 39.6512 29.2 37.0002 29.2C34.3492 29.2 32.2002 31.349 32.2002 34C32.2002 36.6509 34.3492 38.8 37.0002 38.8Z" stroke="white" stroke-width="3" stroke-linecap="round" stroke-linejoin="round"/>
<path d="M49 34C49 44.8 37 53.2 37 53.2C37 53.2 25 44.8 25 34C25 30.8174 26.2643 27.7652 28.5147 25.5147C30.7652 23.2643 33.8174 22 37 22C40.1826 22 43.2348 23.2643 45.4853 25.5147C47.7357 27.7652 49 30.8174 49 34Z" stroke="white" stroke-width="3" stroke-linecap="round" stroke-linejoin="round"/>
</svg>
